<?xml version="1.0" encoding="UTF-8" standalone="no"?>
<!-- Generator: Adobe Illustrator 16.0.0, SVG Export Plug-In . SVG Version: 6.00 Build 0)  -->

<svg
   xmlns:dc="http://purl.org/dc/elements/1.1/"
   xmlns:cc="http://creativecommons.org/ns#"
   xmlns:rdf="http://www.w3.org/1999/02/22-rdf-syntax-ns#"
   xmlns:svg="http://www.w3.org/2000/svg"
   xmlns="http://www.w3.org/2000/svg"
   xmlns:sodipodi="http://sodipodi.sourceforge.net/DTD/sodipodi-0.dtd"
   xmlns:inkscape="http://www.inkscape.org/namespaces/inkscape"
   version="1.1"
   id="Capa_1"
   x="0px"
   y="0px"
   width="508"
   height="508"
   viewBox="0 0 508 508"
   xml:space="preserve"
   sodipodi:docname="open-folder.svg"
   inkscape:version="0.92.3 (2405546, 2018-03-11)"
   inkscape:export-filename="/home/quacquero/Repositories/musicscope/open-folder2.png"
   inkscape:export-xdpi="6.0355306"
   inkscape:export-ydpi="6.0355306"><metadata
   id="metadata966"><rdf:RDF><cc:Work
       rdf:about=""><dc:format>image/svg+xml</dc:format><dc:type
         rdf:resource="http://purl.org/dc/dcmitype/StillImage" /><dc:title></dc:title></cc:Work></rdf:RDF></metadata><defs
   id="defs964" /><sodipodi:namedview
   pagecolor="#ffffff"
   bordercolor="#666666"
   borderopacity="1"
   objecttolerance="10"
   gridtolerance="10"
   guidetolerance="10"
   inkscape:pageopacity="0"
   inkscape:pageshadow="2"
   inkscape:window-width="1366"
   inkscape:window-height="705"
   id="namedview962"
   showgrid="false"
   inkscape:showpageshadow="false"
   inkscape:zoom="0.46532078"
   inkscape:cx="253.5885"
   inkscape:cy="253.5885"
   inkscape:window-x="0"
   inkscape:window-y="30"
   inkscape:window-maximized="1"
   inkscape:current-layer="Capa_1"
   inkscape:pagecheckerboard="true" />
<g
   id="g929"
   transform="translate(0,0.82299805)">
	<path
   d="m 382.737,506.601 c 11.278,0 24.519,-7.294 29.342,-17.236 l 93.815,-177.539 c 5.615,-10.802 -2.548,-17.239 -17.236,-17.239 H 393.92 v -42.421 c 0,-14.641 -11.91,-26.551 -26.551,-26.551 H 135.443 l -17.207,-45.167 c -1.791,-4.69 -6.289,-7.793 -11.313,-7.793 H 12.835 c -3.218,0 -6.312,1.283 -8.588,3.57 -2.27,2.288 -3.535,5.379 -3.517,8.606 l 0.23,67.335 -0.46,227.96 c 0,14.641 11.913,26.551 26.554,26.551 M 369.709,294.593 H 163.134 c -9.522,0 -18.527,7.696 -23.291,17.239 L 55.494,482.467 h -28.44 c -1.289,0 -2.344,-1.052 -2.344,-2.341 V 252.101 l -0.012,-55.23 h 73.884 l 17.209,45.164 c 1.791,4.69 6.286,7.796 11.31,7.796 H 367.37 c 1.288,0 2.34,1.052 2.34,2.341 v 42.421 z"
   id="path927"
   style="fill:#ffffff;fill-opacity:1"
   inkscape:connector-curvature="0"
   inkscape:export-xdpi="6"
   inkscape:export-ydpi="6" />
</g>
<g
   id="g931"
   transform="translate(0,0.82299805)">
</g>
<g
   id="g933"
   transform="translate(0,0.82299805)">
</g>
<g
   id="g935"
   transform="translate(0,0.82299805)">
</g>
<g
   id="g937"
   transform="translate(0,0.82299805)">
</g>
<g
   id="g939"
   transform="translate(0,0.82299805)">
</g>
<g
   id="g941"
   transform="translate(0,0.82299805)">
</g>
<g
   id="g943"
   transform="translate(0,0.82299805)">
</g>
<g
   id="g945"
   transform="translate(0,0.82299805)">
</g>
<g
   id="g947"
   transform="translate(0,0.82299805)">
</g>
<g
   id="g949"
   transform="translate(0,0.82299805)">
</g>
<g
   id="g951"
   transform="translate(0,0.82299805)">
</g>
<g
   id="g953"
   transform="translate(0,0.82299805)">
</g>
<g
   id="g955"
   transform="translate(0,0.82299805)">
</g>
<g
   id="g957"
   transform="translate(0,0.82299805)">
</g>
<g
   id="g959"
   transform="translate(0,0.82299805)">
</g>
</svg>