<?xml version="1.0" encoding="UTF-8" standalone="no"?>
<!-- Generator: Adobe Illustrator 16.0.0, SVG Export Plug-In . SVG Version: 6.00 Build 0)  -->

<svg
   xmlns:dc="http://purl.org/dc/elements/1.1/"
   xmlns:cc="http://creativecommons.org/ns#"
   xmlns:rdf="http://www.w3.org/1999/02/22-rdf-syntax-ns#"
   xmlns:svg="http://www.w3.org/2000/svg"
   xmlns="http://www.w3.org/2000/svg"
   xmlns:sodipodi="http://sodipodi.sourceforge.net/DTD/sodipodi-0.dtd"
   xmlns:inkscape="http://www.inkscape.org/namespaces/inkscape"
   version="1.1"
   id="Capa_1"
   x="0px"
   y="0px"
   width="594"
   height="594"
   viewBox="0 0 594.00001 593.99997"
   xml:space="preserve"
   sodipodi:docname="open-file.svg"
   inkscape:version="0.92.3 (2405546, 2018-03-11)"
   inkscape:export-filename="/home/quacquero/Repositories/musicscope/open-file2.png"
   inkscape:export-xdpi="5.1715312"
   inkscape:export-ydpi="5.1715312"><metadata
   id="metadata41"><rdf:RDF><cc:Work
       rdf:about=""><dc:format>image/svg+xml</dc:format><dc:type
         rdf:resource="http://purl.org/dc/dcmitype/StillImage" /><dc:title></dc:title></cc:Work></rdf:RDF></metadata><defs
   id="defs39" /><sodipodi:namedview
   pagecolor="#ffffff"
   bordercolor="#666666"
   borderopacity="1"
   objecttolerance="10"
   gridtolerance="10"
   guidetolerance="10"
   inkscape:pageopacity="0"
   inkscape:pageshadow="2"
   inkscape:window-width="1366"
   inkscape:window-height="705"
   id="namedview37"
   showgrid="false"
   inkscape:showpageshadow="false"
   inkscape:zoom="0.56300018"
   inkscape:cx="460.30901"
   inkscape:cy="199.3864"
   inkscape:window-x="0"
   inkscape:window-y="30"
   inkscape:window-maximized="1"
   inkscape:current-layer="Capa_1"
   inkscape:pagecheckerboard="true" />
<g
   id="g4"
   transform="translate(1,18.146)"
   style="fill:#ffffff;fill-opacity:1;stroke:#ffffff;stroke-opacity:1;stroke-width:0;stroke-miterlimit:4;stroke-dasharray:none"
   inkscape:export-xdpi="5.1715312"
   inkscape:export-ydpi="5.1715312">
	<path
   d="m 588.673,356.732 -104.756,198.26 c -5.125,9.858 -19.653,20.285 -30.872,20.285 l -420.095999,0.077 c -8.875,0 -17.384,-3.518 -23.6550005,-9.794 -6.271,-6.277 -9.794,-14.777 -9.794,-23.655 l 0.068,-326.209 c 0,-18.448 14.9549995,-33.417 33.4049995,-33.435 l 30.715,-0.029 v 28.496 H 43.139001 c -4.022,0 -7.885,1.596 -10.731001,4.442 -2.843,2.846 -4.442,6.706 -4.442,10.731 l 0.03,305.796 c 0,8.388 6.797,15.173 15.176001,15.173 h 21.045 L 163.497,346.034 c 5.609,-11.219 16.208,-20.286 27.411,-20.286 h 243.14 l 0.083,-80.823 c 15.876,1.472 28.406,14.641 28.406,30.893 v 49.931 H 574.05 c 13.169,0.135 24.258,13.157 14.623,30.983 z m -505.615,89.04 c -0.907,-99.969 0,-399.884 0,-399.884 0,-15.132 12.306,-27.429 27.423,-27.429 h 219.614 c 3.518,0 6.874,1.472 9.251,4.061 l 71,77.141 c 2.128,2.323 3.321,5.364 3.321,8.515 V 308.015 H 390.633 V 125.432 c 0,-3.159 -2.565,-5.725 -5.728,-5.725 h -54.343 c -6.36,0 -11.532,-5.163 -11.532,-11.511 V 47.221 c 0,-3.16 -2.565,-5.725 -5.728,-5.725 H 110.495 c -2.423,0 -4.395,1.971 -4.395,4.392 v 374.739 l -17.625999,35.66 C 88.475001,456.281 83.149,455.891 83.058,445.772 Z M 342.088,96.682 H 376.3 L 342.088,59.494 Z m 12.477,46.485 H 142.313 c -7.82,0 -14.168,6.354 -14.168,14.174 0,7.814 6.354,14.171 14.168,14.171 h 212.258 c 7.82,0 14.187,-6.362 14.187,-14.171 -0.013,-7.814 -6.378,-14.174 -14.193,-14.174 z m 14.18,96.709 c 0,-7.814 -6.359,-14.162 -14.18,-14.162 H 142.313 c -7.82,0 -14.168,6.36 -14.168,14.162 0,7.814 6.354,14.162 14.168,14.162 h 212.258 c 7.809,10e-4 14.174,-6.348 14.174,-14.162 z M 128.136,322.97 c 0,7.813 6.357,14.162 14.171,14.162 h 5.089 c 8.958,-24.967 31.164,-28.324 31.164,-28.324 h -36.253 c -7.802,0 -14.171,6.348 -14.171,14.162 z"
   id="path2"
   style="fill:#7f7f7f;fill-opacity:1;stroke:#ffffff;stroke-width:0;stroke-miterlimit:4;stroke-dasharray:none;stroke-opacity:1"
   inkscape:connector-curvature="0" />
</g>
<g
   id="g6"
   transform="translate(0,1.1859741)">
</g>
<g
   id="g8"
   transform="translate(0,1.1859741)">
</g>
<g
   id="g10"
   transform="translate(0,1.1859741)">
</g>
<g
   id="g12"
   transform="translate(0,1.1859741)">
</g>
<g
   id="g14"
   transform="translate(0,1.1859741)">
</g>
<g
   id="g16"
   transform="translate(0,1.1859741)">
</g>
<g
   id="g18"
   transform="translate(0,1.1859741)">
</g>
<g
   id="g20"
   transform="translate(0,1.1859741)">
</g>
<g
   id="g22"
   transform="translate(0,1.1859741)">
</g>
<g
   id="g24"
   transform="translate(0,1.1859741)">
</g>
<g
   id="g26"
   transform="translate(0,1.1859741)">
</g>
<g
   id="g28"
   transform="translate(0,1.1859741)">
</g>
<g
   id="g30"
   transform="translate(0,1.1859741)">
</g>
<g
   id="g32"
   transform="translate(0,1.1859741)">
</g>
<g
   id="g34"
   transform="translate(0,1.1859741)">
</g>
</svg>